<svg width="24" height="24" viewBox="0 0 24 24" fill="none" xmlns="http://www.w3.org/2000/svg">
<path fill-rule="evenodd" clip-rule="evenodd" d="M13.8151 11.2146C14.443 10.7638 15.0412 10.2738 15.5753 9.72811C16.1076 9.18281 16.5763 8.57871 16.9067 7.91547C17.2472 7.25642 17.3953 6.52597 17.3361 5.81478C17.277 5.25338 17.0565 4.71158 16.7019 4.27373C16.3484 3.84009 15.8609 3.49709 15.3299 3.33049C15.065 3.24124 14.7839 3.18874 14.5053 3.18874C14.2257 3.17824 13.946 3.22409 13.6758 3.30564C13.1393 3.46349 12.6174 3.80299 12.2395 4.20234L12.0109 4.46203L11.7607 4.20339C11.3284 3.75609 10.7282 3.39384 10.1181 3.25629C9.80976 3.18419 9.49196 3.16739 9.17942 3.21359C9.02262 3.22374 8.86862 3.27659 8.71602 3.31194L8.27922 3.48799C7.70907 3.77219 7.23378 4.23944 6.95483 4.80958C6.66958 5.37588 6.58593 6.03703 6.68988 6.67682C6.89603 7.97077 7.75912 9.11701 8.75417 10.0508C9.25537 10.5226 9.80066 10.9552 10.3757 11.3486C10.8986 11.7156 11.4412 12.0453 12.0015 12.3655C12.624 12.0075 13.2398 11.6332 13.8151 11.2146Z" stroke="#5C9A1B"/>
<path d="M4.11769 9.46318C4.11769 9.46318 4.08444 8.31098 3.91784 6.72409C3.75089 5.13755 2.4895 5.2457 2.32745 5.6496C2.16505 6.05384 1.6103 8.66308 1.50285 11.7168C1.39575 14.7709 4.33504 16.9808 5.01719 17.7179C5.70003 18.4553 6.23973 19.3699 6.23973 19.3699L6.16763 21.2312L10.6613 21.1664C10.6613 21.1664 10.6322 20.031 10.6501 18.7479C10.663 17.7945 10.7638 16.7652 10.5944 16.0263C9.83666 12.7178 6.76648 12.1963 6.76648 12.1963C6.76648 12.1963 6.47108 11.6948 6.30273 11.44C6.00978 10.9965 5.48163 10.0288 4.68784 9.64553C3.73654 9.18633 2.4454 10.3637 3.10935 11.3049C3.67739 12.1099 6.06508 15.1065 6.06508 15.1065" stroke="#5C9A1B" stroke-linecap="round" stroke-linejoin="round"/>
<path d="M19.8826 9.46318C19.8826 9.46318 19.9158 8.31098 20.0824 6.72409C20.2494 5.13755 21.5107 5.2457 21.6728 5.6496C21.8348 6.05384 22.3899 8.66308 22.4974 11.7168C22.6045 14.7709 19.6652 16.9808 18.9831 17.7179C18.3002 18.4553 17.7605 19.3699 17.7605 19.3699L17.8323 21.2312L13.3386 21.1664C13.3386 21.1664 13.368 20.031 13.3502 18.7479C13.3372 17.7945 13.2364 16.7652 13.4055 16.0263C14.1636 12.7178 17.2338 12.1963 17.2338 12.1963C17.2338 12.1963 17.5288 11.6948 17.6972 11.44C17.9901 10.9965 18.5186 10.0288 19.3121 9.64553C20.2634 9.18633 21.5545 10.3637 20.8909 11.3049C20.3229 12.1099 17.9352 15.1065 17.9352 15.1065" stroke="#5C9A1B" stroke-linecap="round" stroke-linejoin="round"/>
</svg>
